# This file uses centimeters as units for non-parametric coordinates.

mtllib LampSign.mtl
g default
v -1.500000 -2.192529 0.165000
v 1.500000 -2.192529 0.165000
v -1.500000 -0.942529 0.165000
v 1.500000 -0.942529 0.165000
v -1.500000 -0.942529 -0.165000
v 1.500000 -0.942529 -0.165000
v -1.500000 -2.192529 -0.165000
v 1.500000 -2.192529 -0.165000
v 1.274590 -0.942529 0.165000
v 1.274590 -0.942529 -0.165000
v 1.274590 -2.192529 -0.165000
v 1.274590 -2.192529 0.165000
v -1.291906 -0.942529 0.165000
v -1.291906 -0.942529 -0.165000
v -1.291906 -2.192529 -0.165000
v -1.291906 -2.192529 0.165000
v -1.500000 -0.463565 0.165000
v -1.291906 -0.463565 0.165000
v -1.291906 -0.463565 -0.165000
v -1.500000 -0.463565 -0.165000
v 1.274590 -0.463565 0.165000
v 1.500000 -0.463565 0.165000
v 1.500000 -0.463565 -0.165000
v 1.274590 -0.463565 -0.165000
v -1.500000 -0.328281 0.165000
v -1.291906 -0.328281 0.165000
v -1.291906 -0.328281 -0.165000
v -1.500000 -0.328281 -0.165000
v 1.274590 -0.328281 0.165000
v 1.500000 -0.328281 0.165000
v 1.500000 -0.328281 -0.165000
v 1.274590 -0.328281 -0.165000
v 1.274590 -0.328281 -0.000083
v 1.500000 -0.328281 -0.000299
v -1.291906 -0.328281 0.000136
v -1.500000 -0.328281 -0.000577
v -1.500000 -0.328281 0.165000
v -1.291906 -0.328281 0.165000
v -1.291906 -0.328281 0.000136
v -1.500000 -0.328281 -0.000577
v -1.291906 -0.328281 -0.165000
v -1.500000 -0.328281 -0.165000
v 1.274590 -0.328281 -0.000083
v 1.500000 -0.328281 -0.000299
v 1.500000 -0.328281 -0.165000
v 1.274590 -0.328281 -0.165000
v 1.274590 -0.328281 0.165000
v 1.500000 -0.328281 0.165000
v 1.274590 -0.183400 -0.194234
v 1.500000 -0.183400 -0.194450
v 1.500000 -0.183400 -0.329971
v 1.274590 -0.183400 -0.329971
v -1.291906 -0.183400 -0.194014
v -1.500000 -0.183400 -0.194728
v -1.291906 -0.183400 -0.329971
v -1.500000 -0.183400 -0.329971
v -1.500000 -0.183400 0.318503
v -1.291906 -0.183400 0.318503
v -1.291906 -0.183400 0.189817
v -1.500000 -0.183400 0.189104
v 1.274590 -0.183400 0.318503
v 1.500000 -0.183400 0.318503
v 1.500000 -0.183400 0.189382
v 1.274590 -0.183400 0.189598
v -1.500000 0.003084 0.411357
v -1.291906 0.003084 0.411357
v -1.291906 0.003084 0.246493
v -1.500000 0.003084 0.245780
v 1.274590 0.003084 -0.246702
v 1.500000 0.003084 -0.246918
v 1.500000 0.003084 -0.384074
v 1.274590 0.003084 -0.384074
v 1.274590 0.003084 0.383695
v 1.500000 0.003084 0.383695
v 1.500000 0.003084 0.246058
v 1.274590 0.003084 0.246274
v -1.291906 0.003084 -0.246483
v -1.500000 0.003084 -0.247196
v -1.291906 0.003084 -0.384074
v -1.500000 0.003084 -0.384074
v -1.500000 0.196344 0.348224
v -1.291906 0.196344 0.348224
v -1.291906 0.196344 0.183361
v -1.500000 0.196344 0.182647
v 1.274590 0.196344 -0.174662
v 1.500000 0.196344 -0.174878
v 1.500000 0.196344 -0.339579
v 1.274590 0.196344 -0.339579
v 1.274590 0.196344 0.348224
v 1.500000 0.196344 0.348224
v 1.500000 0.196344 0.182925
v 1.274590 0.196344 0.183141
v -1.291906 0.196344 -0.174443
v -1.500000 0.196344 -0.175156
v -1.291906 0.196344 -0.339579
v -1.500000 0.196344 -0.339579
v -1.500000 0.306961 0.204007
v -1.291906 0.306961 0.204007
v -1.291906 0.306961 0.012105
v -1.500000 0.306961 0.011391
v 1.274590 0.306961 0.011885
v 1.500000 0.306961 0.011669
v 1.500000 0.306961 -0.180070
v 1.274590 0.306961 -0.180070
v 1.274590 0.306961 0.204007
v 1.500000 0.306961 0.204007
v -1.291906 0.306961 -0.180070
v -1.500000 0.306961 -0.180070
v -1.500000 0.412058 0.011776
v -1.291906 0.412058 0.012014
v 1.274590 0.412058 0.011941
v 1.500000 0.412058 0.011869
vt 0.375000 0.000000
vt 0.625000 0.000000
vt 0.375000 0.250000
vt 0.625000 0.250000
vt 0.375000 0.500000
vt 0.625000 0.500000
vt 0.375000 0.750000
vt 0.625000 0.750000
vt 0.375000 1.000000
vt 0.625000 1.000000
vt 0.875000 0.000000
vt 0.875000 0.250000
vt 0.125000 0.000000
vt 0.125000 0.250000
vt 0.606216 0.250000
vt 0.606216 0.500000
vt 0.606216 0.750000
vt 0.606216 0.000000
vt 0.606216 1.000000
vt 0.392341 0.250000
vt 0.392341 0.500000
vt 0.392341 0.750000
vt 0.392341 0.000000
vt 0.392341 1.000000
vt 0.375000 0.250000
vt 0.392341 0.250000
vt 0.392341 0.500000
vt 0.375000 0.500000
vt 0.606216 0.250000
vt 0.625000 0.250000
vt 0.625000 0.500000
vt 0.606216 0.500000
vt 0.375000 0.250000
vt 0.392341 0.250000
vt 0.392341 0.500000
vt 0.375000 0.500000
vt 0.606216 0.250000
vt 0.625000 0.250000
vt 0.625000 0.500000
vt 0.606216 0.500000
vt 0.606216 0.375063
vt 0.625000 0.375226
vt 0.392341 0.374897
vt 0.375000 0.375437
vt 0.375000 0.250000
vt 0.392341 0.250000
vt 0.392341 0.374897
vt 0.375000 0.375437
vt 0.625000 0.375226
vt 0.625000 0.500000
vt 0.606216 0.500000
vt 0.606216 0.375063
vt 0.606216 0.250000
vt 0.625000 0.250000
vt 0.392341 0.500000
vt 0.375000 0.500000
vt 0.606216 0.375063
vt 0.625000 0.375226
vt 0.625000 0.500000
vt 0.606216 0.500000
vt 0.375000 0.375437
vt 0.392341 0.374897
vt 0.392341 0.500000
vt 0.375000 0.500000
vt 0.375000 0.250000
vt 0.392341 0.250000
vt 0.392341 0.374897
vt 0.375000 0.375437
vt 0.606216 0.250000
vt 0.625000 0.250000
vt 0.625000 0.375226
vt 0.606216 0.375063
vt 0.375000 0.250000
vt 0.392341 0.250000
vt 0.392341 0.374897
vt 0.375000 0.375437
vt 0.606216 0.375063
vt 0.625000 0.375226
vt 0.625000 0.500000
vt 0.606216 0.500000
vt 0.606216 0.250000
vt 0.625000 0.250000
vt 0.625000 0.375226
vt 0.606216 0.375063
vt 0.375000 0.375437
vt 0.392341 0.374897
vt 0.392341 0.500000
vt 0.375000 0.500000
vt 0.375000 0.250000
vt 0.392341 0.250000
vt 0.392341 0.374897
vt 0.375000 0.375437
vt 0.606216 0.375063
vt 0.625000 0.375226
vt 0.625000 0.500000
vt 0.606216 0.500000
vt 0.606216 0.250000
vt 0.625000 0.250000
vt 0.625000 0.375226
vt 0.606216 0.375063
vt 0.375000 0.375437
vt 0.392341 0.374897
vt 0.392341 0.500000
vt 0.375000 0.500000
vt 0.375000 0.250000
vt 0.392341 0.250000
vt 0.392341 0.374897
vt 0.375000 0.375437
vt 0.606216 0.375063
vt 0.625000 0.375226
vt 0.625000 0.500000
vt 0.606216 0.500000
vt 0.606216 0.250000
vt 0.625000 0.250000
vt 0.625000 0.375226
vt 0.606216 0.375063
vt 0.375000 0.375437
vt 0.392341 0.374897
vt 0.392341 0.500000
vt 0.375000 0.500000
vt 0.375000 0.312719
vt 0.392341 0.312448
vt 0.606216 0.437532
vt 0.625000 0.437613
vt 0.606216 0.312532
vt 0.625000 0.312613
vt 0.375000 0.437719
vt 0.392341 0.437448
vn 0.000000 0.000000 1.000000
vn 0.000000 0.000000 1.000000
vn 0.000000 0.000000 1.000000
vn 0.000000 0.000000 1.000000
vn 0.000000 0.000000 -1.000000
vn 0.000000 0.000000 -1.000000
vn 0.000000 0.000000 -1.000000
vn 0.000000 0.000000 -1.000000
vn 0.000000 -1.000000 0.000000
vn 0.000000 -1.000000 0.000000
vn 0.000000 -1.000000 0.000000
vn 0.000000 -1.000000 0.000000
vn 1.000000 0.000000 0.000000
vn 1.000000 0.000000 0.000000
vn 1.000000 0.000000 0.000000
vn 1.000000 0.000000 0.000000
vn -1.000000 0.000000 0.000000
vn -1.000000 0.000000 0.000000
vn -1.000000 0.000000 0.000000
vn -1.000000 0.000000 0.000000
vn 0.000000 0.000000 -1.000000
vn 0.000000 0.000000 -1.000000
vn 0.000000 0.000000 -1.000000
vn 0.000000 0.000000 -1.000000
vn 0.000000 -1.000000 0.000000
vn 0.000000 -1.000000 0.000000
vn 0.000000 -1.000000 0.000000
vn 0.000000 -1.000000 0.000000
vn 0.000000 0.000000 1.000000
vn 0.000000 0.000000 1.000000
vn 0.000000 0.000000 1.000000
vn 0.000000 0.000000 1.000000
vn 0.000000 1.000000 0.000000
vn 0.000000 1.000000 0.000000
vn 0.000000 1.000000 0.000000
vn 0.000000 1.000000 0.000000
vn 0.000000 0.000000 1.000000
vn 0.000000 0.000000 1.000000
vn 1.000000 0.000000 0.000000
vn 1.000000 0.000000 0.000000
vn 1.000000 0.000000 0.000000
vn 1.000000 0.000000 0.000000
vn 0.000000 0.000000 -1.000000
vn 0.000000 0.000000 -1.000000
vn -1.000000 0.000000 0.000000
vn -1.000000 0.000000 0.000000
vn 0.000000 0.000000 1.000000
vn 0.000000 0.000000 1.000000
vn 1.000000 0.000000 0.000000
vn 1.000000 0.000000 0.000000
vn 0.000000 0.000000 -1.000000
vn 0.000000 0.000000 -1.000000
vn -1.000000 0.000000 0.000000
vn -1.000000 0.000000 0.000000
vn -1.000000 0.000000 0.000000
vn -1.000000 0.000000 0.000000
vn 0.000000 0.000000 1.000000
vn 0.000000 0.000000 1.000000
vn 0.000000 0.000000 1.000000
vn 0.000000 0.000000 1.000000
vn 1.000000 -0.000000 0.000000
vn 1.000000 -0.000000 0.000000
vn 1.000000 0.000000 0.000000
vn 0.000000 0.000000 -1.000000
vn 0.000000 0.000000 -1.000000
vn 0.000000 0.000000 -1.000000
vn 0.000000 0.000000 -1.000000
vn -1.000000 0.000000 0.000000
vn -1.000000 0.000000 0.000000
vn -1.000000 0.000000 0.000000
vn 0.000000 0.000000 1.000000
vn 0.000000 0.000000 1.000000
vn 0.000000 0.000000 1.000000
vn 0.000000 0.000000 1.000000
vn 1.000000 -0.000004 0.000000
vn 1.000000 -0.000003 0.000000
vn 1.000000 0.000000 0.000000
vn 0.000000 0.000000 -1.000000
vn 0.000000 0.000000 -1.000000
vn 0.000000 0.000000 -1.000000
vn 0.000000 0.000000 -1.000000
vn -1.000000 0.000002 0.000000
vn -1.000000 0.000002 0.000000
vn -1.000000 0.000000 0.000000
vn 1.000000 -0.000003 0.000000
vn 1.000000 0.000000 0.000000
vn -1.000000 0.000002 0.000000
vn -1.000000 0.000000 0.000000
vn -1.000000 0.000000 0.000000
vn -1.000000 0.000000 0.000000
vn 1.000000 -0.000000 0.000000
vn 1.000000 0.000000 0.000000
vn 0.000000 0.000000 0.000000
vn 0.000000 0.000000 0.000000
vn 1.000000 -0.000001 0.000000
vn 0.000000 0.000000 0.000000
vn 0.000000 0.000000 0.000000
vn -1.000000 0.000000 0.000000
vn 0.000000 0.000000 0.000000
vn 1.000000 -0.000001 0.000000
vn 0.000000 0.000000 0.000000
vn 0.000000 0.000000 0.000000
vn 0.000000 -0.751374 -0.659876
vn 0.000000 -0.751374 -0.659876
vn 0.000000 0.000000 0.000000
vn -1.000000 0.000000 0.000000
vn 0.000000 0.000000 0.000000
vn 0.000000 0.000000 0.000000
vn 1.000000 0.000000 0.000000
vn 1.000000 0.000000 0.000000
vn 0.000000 0.000000 0.000000
vn 0.000000 0.000000 0.000000
vn 0.000000 -0.751375 -0.659876
vn 0.000000 -0.751375 -0.659876
vn 0.000000 0.000000 0.000000
vn 0.000000 0.000000 0.000000
vn -1.000000 -0.000001 0.000000
vn -1.000000 0.000000 0.000000
vn 0.000000 0.000000 0.000000
vn 0.000000 0.000000 0.000000
vn 0.000000 -0.727236 0.686388
vn 0.000000 -0.727236 0.686388
vn 0.000000 0.000000 0.000000
vn 1.000000 0.000000 0.000000
vn 0.000000 0.000000 0.000000
vn -1.000000 -0.000003 0.000000
vn -0.000000 1.000000 -0.000367
vn 0.000000 1.000000 0.000367
vn 0.000768 0.596955 0.802274
vn 0.000768 0.597131 0.802143
vn 1.000000 0.000000 0.000000
vn 1.000000 0.000000 0.000000
vn 0.000000 -0.551495 -0.834179
vn 0.000000 -0.551495 -0.834179
vn -1.000000 -0.000000 0.000000
vn -1.000000 -0.000000 0.000000
vn -0.000005 0.999999 0.001315
vn 0.000004 0.999999 -0.001315
vn -0.002750 0.597355 0.801972
vn -0.002751 0.596726 0.802440
vn 1.000000 -0.000000 0.000000
vn 1.000000 -0.000001 0.000000
vn 0.000000 -0.551495 -0.834179
vn 0.000000 -0.551495 -0.834179
vn -1.000000 -0.000000 0.000000
vn -1.000000 -0.000000 0.000000
vn 0.000000 -0.727235 0.686388
vn 0.000000 -0.727235 0.686388
vn 0.000000 -0.596634 0.802514
vn 0.000000 -0.596634 0.802514
vn 1.000000 0.000000 0.000000
vn 1.000000 0.000000 0.000000
vn 1.000000 -0.000000 0.000000
vn 1.000000 -0.000000 0.000000
vn 0.002750 0.596934 -0.802285
vn 0.002752 0.596329 -0.802736
vn -1.000000 -0.000001 0.000000
vn -1.000000 -0.000001 0.000000
vn -1.000000 0.000000 0.000000
vn -1.000000 -0.000000 0.000000
vn 0.000000 -0.550830 0.834618
vn 0.000000 -0.550830 0.834618
vn 1.000000 -0.000000 0.000000
vn 1.000000 -0.000001 0.000000
vn -0.000768 0.596550 -0.802576
vn -0.000768 0.596719 -0.802450
vn -1.000000 0.000002 0.000000
vn -1.000000 -0.000001 0.000000
vn 0.000000 -0.078026 0.996951
vn 0.000000 -0.078026 0.996951
vn 1.000000 -0.000000 0.000000
vn 1.000000 -0.000000 0.000000
vn 0.003428 -0.017006 -0.999850
vn 0.003428 -0.016993 -0.999850
vn -1.000000 0.000000 0.000000
vn -1.000000 0.000000 0.000000
vn 0.000956 -0.051464 0.998675
vn 0.000956 -0.051479 0.998674
vn 1.000000 0.000000 0.000000
vn 1.000000 0.000000 0.000000
vn 0.000000 -0.025294 -0.999680
vn 0.000000 -0.025294 -0.999680
vn -1.000000 0.000001 0.000000
vn -1.000000 0.000001 0.000000
vn 0.000000 -0.078026 0.996951
vn 0.000000 -0.078026 0.996951
vn 1.000000 -0.000001 0.000000
vn 1.000000 -0.000001 0.000000
vn -0.000957 -0.016998 -0.999855
vn -0.000957 -0.017002 -0.999855
vn -1.000000 0.000001 0.000000
vn -1.000000 0.000001 0.000000
vn -0.003424 -0.051499 0.998667
vn -0.003424 -0.051443 0.998670
vn 1.000000 0.000000 0.000000
vn 1.000000 0.000000 0.000000
vn 0.000000 -0.025294 -0.999680
vn 0.000000 -0.025294 -0.999680
vn -1.000000 0.000000 0.000000
vn -1.000000 0.000000 0.000000
vn 0.000000 0.563637 0.826022
vn 0.000000 0.563637 0.826022
vn 1.000000 0.000001 0.000000
vn 1.000000 0.000000 0.000000
vn 0.002714 -0.611104 -0.791546
vn 0.002716 -0.610399 -0.792089
vn -1.000000 0.000000 0.000000
vn -1.000000 0.000000 0.000000
vn 0.000729 -0.647975 0.761661
vn 0.000729 -0.648173 0.761493
vn 1.000000 0.000001 0.000000
vn 1.000000 0.000002 0.000000
vn 0.000000 0.557383 -0.830256
vn 0.000000 0.557383 -0.830256
vn -1.000000 0.000003 0.000000
vn -1.000000 0.000002 0.000000
vn 0.000000 0.508992 0.860771
vn 0.000000 0.508992 0.860771
vn 1.000000 -0.000000 0.000000
vn 1.000000 -0.000000 0.000000
vn -0.000758 -0.610655 -0.791897
vn -0.000758 -0.610852 -0.791745
vn -1.000000 -0.000000 0.000000
vn -1.000000 -0.000000 0.000000
vn -0.002610 -0.648427 0.761273
vn -0.002612 -0.647717 0.761876
vn 1.000000 -0.000000 0.000000
vn 1.000000 -0.000000 0.000000
vn 0.000000 0.557383 -0.830255
vn 0.000000 0.557383 -0.830255
vn -1.000000 -0.000000 0.000000
vn -1.000000 0.000000 0.000000
vn -0.000150 0.841745 0.539875
vn -0.000150 0.841745 0.539875
vn 1.000000 0.000000 0.000000
vn 1.000000 0.000001 0.000000
vn 0.001860 -0.840008 -0.542571
vn 0.001860 -0.840008 -0.542571
vn -1.000000 -0.000000 0.000000
vn -1.000000 -0.000001 0.000000
vn 0.000488 -0.860150 0.510041
vn 0.000488 -0.860150 0.510041
vn 1.000000 0.000003 0.000000
vn 1.000000 0.000001 0.000000
vn -0.000041 0.852290 -0.523069
vn -0.000041 0.852290 -0.523069
vn -1.000000 0.000005 0.000000
vn -1.000000 0.000003 0.000000
vn 0.000042 0.841739 0.539885
vn 0.000042 0.841739 0.539885
vn 1.000000 0.000000 0.000000
vn 1.000000 0.000000 0.000000
vn -0.000520 -0.840008 -0.542574
vn -0.000520 -0.840008 -0.542574
vn -1.000000 -0.000000 0.000000
vn -1.000000 -0.000003 0.000000
vn -0.001749 -0.860149 0.510040
vn -0.001749 -0.860149 0.510040
vn 1.000000 -0.000001 0.000000
vn 1.000000 0.000000 0.000000
vn 0.000146 0.852283 -0.523081
vn 0.000146 0.852283 -0.523081
vn -1.000000 -0.000000 0.000000
vn -1.000000 -0.000001 0.000000
vn -0.000274 0.877301 0.479940
vn -0.000274 0.877301 0.479940
vn 1.000000 0.000000 0.000000
vn 0.002286 0.001398 -0.999996
vn 0.002286 0.001398 -0.999996
vn 0.002286 0.001398 -0.999996
vn 0.002286 0.001398 -0.999996
vn -1.000000 -0.000001 0.000000
vn 0.000639 -0.001212 0.999999
vn 0.000639 -0.001212 0.999999
vn 0.000639 -0.001212 0.999999
vn 0.000639 -0.001212 0.999999
vn 1.000000 0.000000 0.000000
vn -0.000077 0.877159 -0.480200
vn -0.000077 0.877159 -0.480200
vn -1.000000 0.000006 0.000000
vn 0.000077 0.877293 0.479955
vn 0.000077 0.877293 0.479955
vn 1.000000 0.000000 0.000000
vn -0.000639 0.001212 -0.999999
vn -0.000639 0.001212 -0.999999
vn -0.000639 0.001212 -0.999999
vn -0.000639 0.001212 -0.999999
vn -1.000000 -0.000004 0.000000
vn -0.002286 -0.001398 0.999996
vn -0.002286 -0.001398 0.999996
vn -0.002286 -0.001398 0.999996
vn -0.002286 -0.001398 0.999996
vn 1.000000 0.000001 0.000000
vn 0.000274 0.877147 -0.480222
vn 0.000274 0.877147 -0.480222
vn -1.000000 0.000000 0.000000
s 1
g SignMesh
usemtl initialShadingGroup
f 1/1/1 16/23/2 13/20/3 3/3/4
s 2
f 5/5/5 14/21/6 15/22/7 7/7/8
s 3
f 7/7/9 15/22/10 16/24/11 1/9/12
s 4
f 2/2/13 8/11/14 6/12/15 4/4/16
s 5
f 7/13/17 1/1/18 3/3/19 5/14/20
s 2
f 11/17/21 10/16/22 6/6/23 8/8/24
s 3
f 12/19/25 11/17/26 8/8/27 2/10/28
s 1
f 9/15/29 12/18/30 2/2/31 4/4/32
s off
f 13/20/33 9/15/34 10/16/35 14/21/36
s 2
f 15/22/7 14/21/6 10/16/22 11/17/21
s 3
f 16/24/11 15/22/10 11/17/26 12/19/25
s 1
f 13/20/3 16/23/2 12/18/30 9/15/29
f 3/3/4 13/20/3 18/26/37 17/25/38
s off
f 13/20/39 14/21/40 19/27/41 18/26/42
s 2
f 14/21/6 5/5/5 20/28/43 19/27/44
s 5
f 5/5/20 3/3/19 17/25/45 20/28/46
s 1
f 9/15/29 4/4/32 22/30/47 21/29/48
s 4
f 4/4/16 6/6/15 23/31/49 22/30/50
s 2
f 6/6/23 10/16/22 24/32/51 23/31/52
s off
f 10/16/53 9/15/54 21/29/55 24/32/56
s 6
f 17/25/57 18/26/58 26/34/59 25/33/60
s 7
f 35/43/61 19/27/62 27/35/63
s off
f 19/27/64 20/28/65 28/36/66 27/35/67
s 8
f 36/44/68 17/25/69 25/33/70
s off
f 21/29/71 22/30/72 30/38/73 29/37/74
s 9
f 34/42/75 23/31/76 31/39/77
s off
f 23/31/78 24/32/79 32/40/80 31/39/81
s 10
f 33/41/82 21/29/83 29/37/84
s 9
f 22/30/85 34/42/75 30/38/86
f 22/30/85 23/31/76 34/42/75
s 10
f 24/32/87 21/29/83 33/41/82
f 24/32/87 33/41/82 32/40/88
s 8
f 20/28/89 17/25/69 36/44/68
f 20/28/89 36/44/68 28/36/90
s 7
f 18/26/91 35/43/61 26/34/92
f 18/26/91 19/27/62 35/43/61
s 6
f 25/33/60 26/34/59 38/46/93 37/45/94
s 7
f 26/34/92 35/43/61 39/47/95 38/46/96
s 8
f 36/44/68 25/33/70 37/45/97 40/48/98
s 7
f 35/42/61 27/39/99 41/50/100 39/49/95
s 11
f 27/39/101 28/40/102 42/51/103 41/50/104
s 8
f 28/40/105 36/41/68 40/52/98 42/51/106
s 12
f 34/37/107 31/38/108 45/54/109 44/53/110
s 13
f 31/38/111 32/42/112 46/49/113 45/54/114
s 14
f 32/41/115 33/37/116 43/53/117 46/52/118
s 15
f 29/43/119 30/35/120 48/55/121 47/47/122
s 12
f 30/35/123 34/36/107 44/56/110 48/55/124
s 14
f 33/36/116 29/44/125 47/48/126 43/56/117
s 16
f 43/52/127 44/49/128 50/58/129 49/57/130
s 12
f 44/49/110 45/50/109 51/59/131 50/58/132
s 13
f 45/50/114 46/51/113 52/60/133 51/59/134
s 14
f 46/51/118 43/52/117 49/57/135 52/60/136
s 17
f 40/48/137 39/47/138 53/62/139 54/61/140
s 7
f 39/47/95 41/55/100 55/63/141 53/62/142
s 11
f 41/55/104 42/56/103 56/64/143 55/63/144
s 8
f 42/56/106 40/48/98 54/61/145 56/64/146
s 18
f 37/45/147 38/46/148 58/66/149 57/65/150
s 19
f 38/46/151 39/47/152 59/67/153 58/66/154
s 17
f 39/47/138 40/48/137 60/68/155 59/67/156
s 20
f 40/48/157 37/45/158 57/65/159 60/68/160
s 15
f 47/53/122 48/54/121 62/70/161 61/69/162
s 12
f 48/54/124 44/49/110 63/71/163 62/70/164
s 16
f 44/49/128 43/52/127 64/72/165 63/71/166
s 14
f 43/52/117 47/53/126 61/69/167 64/72/168
s 18
f 57/65/150 58/66/149 66/74/169 65/73/170
s 19
f 58/66/154 59/67/153 67/75/171 66/74/172
s 17
f 59/67/156 60/68/155 68/76/173 67/75/174
s 20
f 60/68/160 57/65/159 65/73/175 68/76/176
s 16
f 49/57/130 50/58/129 70/78/177 69/77/178
s 12
f 50/58/132 51/59/131 71/79/179 70/78/180
s 13
f 51/59/134 52/60/133 72/80/181 71/79/182
s 14
f 52/60/136 49/57/135 69/77/183 72/80/184
s 15
f 61/69/162 62/70/161 74/82/185 73/81/186
s 12
f 62/70/164 63/71/163 75/83/187 74/82/188
s 16
f 63/71/166 64/72/165 76/84/189 75/83/190
s 14
f 64/72/168 61/69/167 73/81/191 76/84/192
s 17
f 54/61/140 53/62/139 77/86/193 78/85/194
s 7
f 53/62/142 55/63/141 79/87/195 77/86/196
s 11
f 55/63/144 56/64/143 80/88/197 79/87/198
s 8
f 56/64/146 54/61/145 78/85/199 80/88/200
s 18
f 65/73/170 66/74/169 82/90/201 81/89/202
s 19
f 66/74/172 67/75/171 83/91/203 82/90/204
s 17
f 67/75/174 68/76/173 84/92/205 83/91/206
s 20
f 68/76/176 65/73/175 81/89/207 84/92/208
s 16
f 69/77/178 70/78/177 86/94/209 85/93/210
s 12
f 70/78/180 71/79/179 87/95/211 86/94/212
s 13
f 71/79/182 72/80/181 88/96/213 87/95/214
s 14
f 72/80/184 69/77/183 85/93/215 88/96/216
s 15
f 73/81/186 74/82/185 90/98/217 89/97/218
s 12
f 74/82/188 75/83/187 91/99/219 90/98/220
s 16
f 75/83/190 76/84/189 92/100/221 91/99/222
s 14
f 76/84/192 73/81/191 89/97/223 92/100/224
s 17
f 78/85/194 77/86/193 93/102/225 94/101/226
s 7
f 77/86/196 79/87/195 95/103/227 93/102/228
s 11
f 79/87/198 80/88/197 96/104/229 95/103/230
s 8
f 80/88/200 78/85/199 94/101/231 96/104/232
s 18
f 81/89/202 82/90/201 98/106/233 97/105/234
s 19
f 82/90/204 83/91/203 99/107/235 98/106/236
s 17
f 83/91/206 84/92/205 100/108/237 99/107/238
s 20
f 84/92/208 81/89/207 97/105/239 100/108/240
s 16
f 85/93/210 86/94/209 102/110/241 101/109/242
s 12
f 86/94/212 87/95/211 103/111/243 102/110/244
s 13
f 87/95/214 88/96/213 104/112/245 103/111/246
s 14
f 88/96/216 85/93/215 101/109/247 104/112/248
s 15
f 89/97/218 90/98/217 106/114/249 105/113/250
s 12
f 90/98/220 91/99/219 102/115/251 106/114/252
s 16
f 91/99/222 92/100/221 101/116/253 102/115/254
s 14
f 92/100/224 89/97/223 105/113/255 101/116/256
s 17
f 94/101/226 93/102/225 99/118/257 100/117/258
s 7
f 93/102/228 95/103/227 107/119/259 99/118/260
s 11
f 95/103/230 96/104/229 108/120/261 107/119/262
s 8
f 96/104/232 94/101/231 100/117/263 108/120/264
s 18
f 97/105/234 98/106/233 110/122/265 109/121/266
s 19
f 98/106/236 99/107/235 110/122/267
s off
f 99/107/268 100/108/269 109/121/270 110/122/271
s 20
f 100/108/240 97/105/239 109/121/272
s off
f 101/109/273 102/110/274 112/124/275 111/123/276
s 12
f 102/110/244 103/111/243 112/124/277
s 13
f 103/111/246 104/112/245 111/123/278 112/124/279
s 14
f 104/112/248 101/109/247 111/123/280
s 15
f 105/113/250 106/114/249 112/126/281 111/125/282
s 12
f 106/114/252 102/115/251 112/126/283
s off
f 102/115/284 101/116/285 111/125/286 112/126/287
s 14
f 101/116/256 105/113/255 111/125/288
s off
f 100/117/289 99/118/290 110/128/291 109/127/292
s 7
f 99/118/260 107/119/259 110/128/293
s 11
f 107/119/262 108/120/261 109/127/294 110/128/295
s 8
f 108/120/264 100/117/263 109/127/296
